<svg width="16" height="16" viewBox="0 0 16 16" fill="none" xmlns="http://www.w3.org/2000/svg">
<path d="M6.5 0.5H8H9.5C10.0523 0.5 10.5 0.947715 10.5 1.5V3.5C10.5 4.05228 10.0523 4.5 9.5 4.5H6.5C5.94772 4.5 5.5 4.05228 5.5 3.5V1.5C5.5 0.947715 5.94772 0.5 6.5 0.5Z" stroke="black"/>
<path d="M1.5 7C1.22386 7 1 7.22386 1 7.5C1 7.77614 1.22386 8 1.5 8V7ZM14.5 8C14.7761 8 15 7.77614 15 7.5C15 7.22386 14.7761 7 14.5 7V8ZM8 5H7.5V7.5H8H8.5V5H8ZM1.5 11.5H1V13.5H1.5H2V11.5H1.5ZM2.5 14.5V15H5.5V14.5V14H2.5V14.5ZM6.5 13.5H7V11.5H6.5H6V13.5H6.5ZM14.5 11.5H14V13.5H14.5H15V11.5H14.5ZM13.5 14.5V14H10.5V14.5V15H13.5V14.5ZM9.5 13.5H10V11.5H9.5H9V13.5H9.5ZM8 7.5V8H12V7.5V7H8V7.5ZM12 7.5V8H14.5V7.5V7H12V7.5ZM10.5 10.5V11H12V10.5V10H10.5V10.5ZM12 10.5V11H13.5V10.5V10H12V10.5ZM12 7.5H11.5V10.5H12H12.5V7.5H12ZM5.5 10.5V10H4V10.5V11H5.5V10.5ZM4 10.5V10H2.5V10.5V11H4V10.5ZM8 7.5V7H4V7.5V8H8V7.5ZM4 7.5V7H1.5V7.5V8H4V7.5ZM4 10.5H4.5V7.5H4H3.5V10.5H4ZM10.5 14.5V14C10.2239 14 10 13.7761 10 13.5H9.5H9C9 14.3284 9.67157 15 10.5 15V14.5ZM14.5 13.5H14C14 13.7761 13.7761 14 13.5 14V14.5V15C14.3284 15 15 14.3284 15 13.5H14.5ZM14.5 11.5H15C15 10.6716 14.3284 10 13.5 10V10.5V11C13.7761 11 14 11.2239 14 11.5H14.5ZM9.5 11.5H10C10 11.2239 10.2239 11 10.5 11V10.5V10C9.67157 10 9 10.6716 9 11.5H9.5ZM6.5 11.5H7C7 10.6716 6.32843 10 5.5 10V10.5V11C5.77614 11 6 11.2239 6 11.5H6.5ZM5.5 14.5V15C6.32843 15 7 14.3284 7 13.5H6.5H6C6 13.7761 5.77614 14 5.5 14V14.5ZM1.5 13.5H1C1 14.3284 1.67157 15 2.5 15V14.5V14C2.22386 14 2 13.7761 2 13.5H1.5ZM1.5 11.5H2C2 11.2239 2.22386 11 2.5 11V10.5V10C1.67157 10 1 10.6716 1 11.5H1.5Z" fill="black"/>
</svg>
