<svg width="16" height="16" viewBox="0 0 16 16" fill="none" xmlns="http://www.w3.org/2000/svg">
<path d="M7.5 5.5V0.5C7.5 0.223858 7.72386 0 8 0C8.27614 0 8.5 0.223858 8.5 0.5V5.5C8.5 5.77614 8.27614 6 8 6C7.72386 6 7.5 5.77614 7.5 5.5Z" fill="black"/>
<mask id="path-2-inside-1_1_252" fill="white">
<path d="M10.0663 2.82778C10.1524 2.57058 10.4315 2.43027 10.682 2.53418C12.0567 3.10437 13.2183 4.10008 13.9921 5.38134C14.8507 6.80316 15.1758 8.48397 14.9093 10.1234C14.6427 11.7629 13.8018 13.2541 12.537 14.3306C11.2721 15.4072 9.66566 15.9989 8.00468 16C6.34371 16.0011 4.73646 15.4116 3.47015 14.3367C2.20385 13.2619 1.361 11.7717 1.09224 10.1327C0.823485 8.49357 1.14632 6.81233 2.00306 5.38936C2.77511 4.10706 3.93538 3.10981 5.30932 2.53778C5.55971 2.43352 5.83905 2.57346 5.92549 2.83055V2.83055C6.01194 3.08763 5.87258 3.36427 5.62339 3.47138C4.46998 3.96717 3.49632 4.81342 2.84453 5.89599C2.108 7.11929 1.83046 8.56463 2.06151 9.97373C2.29256 11.3828 3.01714 12.6639 4.10576 13.5879C5.19438 14.5119 6.57611 15.0187 8.00403 15.0178C9.43194 15.0168 10.813 14.5082 11.9004 13.5827C12.9878 12.6572 13.7106 11.3752 13.9398 9.96578C14.1689 8.55638 13.8895 7.11141 13.1513 5.88909C12.4981 4.8074 11.5233 3.96245 10.3692 3.46821C10.1199 3.36143 9.98015 3.08498 10.0663 2.82778V2.82778Z"/>
</mask>
<path d="M10.0663 2.82778C10.1524 2.57058 10.4315 2.43027 10.682 2.53418C12.0567 3.10437 13.2183 4.10008 13.9921 5.38134C14.8507 6.80316 15.1758 8.48397 14.9093 10.1234C14.6427 11.7629 13.8018 13.2541 12.537 14.3306C11.2721 15.4072 9.66566 15.9989 8.00468 16C6.34371 16.0011 4.73646 15.4116 3.47015 14.3367C2.20385 13.2619 1.361 11.7717 1.09224 10.1327C0.823485 8.49357 1.14632 6.81233 2.00306 5.38936C2.77511 4.10706 3.93538 3.10981 5.30932 2.53778C5.55971 2.43352 5.83905 2.57346 5.92549 2.83055V2.83055C6.01194 3.08763 5.87258 3.36427 5.62339 3.47138C4.46998 3.96717 3.49632 4.81342 2.84453 5.89599C2.108 7.11929 1.83046 8.56463 2.06151 9.97373C2.29256 11.3828 3.01714 12.6639 4.10576 13.5879C5.19438 14.5119 6.57611 15.0187 8.00403 15.0178C9.43194 15.0168 10.813 14.5082 11.9004 13.5827C12.9878 12.6572 13.7106 11.3752 13.9398 9.96578C14.1689 8.55638 13.8895 7.11141 13.1513 5.88909C12.4981 4.8074 11.5233 3.96245 10.3692 3.46821C10.1199 3.36143 9.98015 3.08498 10.0663 2.82778V2.82778Z" stroke="black" stroke-width="2" stroke-linejoin="round" mask="url(#path-2-inside-1_1_252)"/>
</svg>
