<svg width="16" height="16" viewBox="0 0 16 16" fill="none" xmlns="http://www.w3.org/2000/svg">
<path d="M12.1934 3.10547C12.3842 2.95712 12.6486 2.96858 12.8252 3.12012L12.8945 3.19336L13.0947 3.46094C15.092 6.26632 15.0248 10.0676 12.8945 12.8066C12.725 13.0246 12.4113 13.0639 12.1934 12.8945C11.9754 12.725 11.9361 12.4113 12.1055 12.1934C13.9638 9.80411 14.0215 6.48814 12.2793 4.04101L12.1055 3.80664L12.0518 3.72168C11.9483 3.51312 12.0025 3.25393 12.1934 3.10547ZM10.1797 4.61621C10.3917 4.43951 10.707 4.46781 10.8838 4.67969C12.4865 6.60295 12.4865 9.39705 10.8838 11.3203C10.707 11.5322 10.3917 11.5605 10.1797 11.3838C9.96782 11.207 9.93951 10.8917 10.1162 10.6797C11.3692 9.17582 11.4082 7.01278 10.2334 5.46777L10.1162 5.32031L10.0596 5.23633C9.9494 5.03151 9.99423 4.77099 10.1797 4.61621ZM8.09961 6.20019C8.26522 5.97938 8.57891 5.9342 8.79981 6.09961C10.0665 7.04961 10.0665 8.95039 8.79981 9.90039C8.57891 10.0658 8.26522 10.0206 8.09961 9.7998C7.9342 9.57891 7.97939 9.26522 8.2002 9.09961C8.88727 8.58401 8.93023 7.58578 8.32911 7.00976L8.2002 6.90039L8.125 6.83105C7.97115 6.65714 7.95501 6.3933 8.09961 6.20019Z" fill="black"/>
<path d="M0.5 9.49999V6.5C0.5 5.94771 0.947715 5.5 1.5 5.5H2.5L4.73643 2.85541C5.33805 2.14399 6.5 2.56943 6.5 3.50114V12.4988C6.5 13.4306 5.33805 13.856 4.73643 13.1446L2.5 10.5H1.5C0.947715 10.5 0.5 10.0523 0.5 9.49999Z" stroke="black"/>
</svg>
